<?xml version="1.0" encoding="utf-8"?>
<!-- Generator: Adobe Illustrator 24.0.1, SVG Export Plug-In . SVG Version: 6.00 Build 0)  -->
<svg version="1.1" id="레이어_1" xmlns="http://www.w3.org/2000/svg" xmlns:xlink="http://www.w3.org/1999/xlink" x="0px"
	 y="0px" viewBox="0 0 850 280" style="enable-background:new 0 0 850 280;" xml:space="preserve">
<g>
	<path style="fill:#FFFFFF;" d="M404.3,232.6c4.5,0,8.6,0,12.5,0s7.5,0,10.9-0.1v-13.3h12.6v13c5-0.1,9.4-0.3,13.2-0.5
		c3.8-0.2,7.2-0.5,10.3-0.8l0.9,10.7c-2.9,0.3-6.2,0.6-10,0.9c-3.8,0.2-8.1,0.4-13,0.6c-4.9,0.1-10.4,0.2-16.6,0.3
		s-13.1,0.1-20.8,0.1V232.6z M408.6,179.3h19.1v-10.1h12.5v10.1H459v10.8h-18.7v0.1c0,1.5,0.1,2.8,0.3,3.9c0.2,1.1,0.5,2.2,1,3.2
		s1.2,2,2.2,3s2.3,2,3.9,3.2c2.3,1.7,4.7,3.4,7.1,4.9s4.7,3,7.1,4.5l-6.4,8.9c-2.3-1.4-4.4-2.7-6.4-4s-3.9-2.6-5.8-3.9
		c-2.5-1.7-4.5-3.2-5.9-4.3s-2.3-2.1-2.6-2.8h-0.1c-0.3,0.7-1.2,1.7-2.5,2.9s-3.2,2.6-5.5,4.3c-2.1,1.5-4.5,3.1-7,4.7
		c-2.5,1.6-5.2,3.3-8,5l-6.4-9.3c2.9-1.7,5.6-3.4,8-5s5-3.4,7.7-5.4c2.9-2.1,4.7-4.1,5.6-6.2c0.8-2.1,1.3-4.6,1.3-7.5v-0.1h-19.3
		L408.6,179.3L408.6,179.3z M481.1,261.5h-12.5v-93.1h12.5V261.5z"/>
	<path style="fill:#FFFFFF;" d="M566.4,172.8v16.5c0,1.1,0,2.5-0.2,4.2c-0.1,1.6-0.2,3.4-0.4,5.3c-0.2,1.9-0.4,3.8-0.7,5.7
		s-0.6,3.8-1,5.5h14.7v10.7h-85.3V210h57.9c0.8-3.3,1.4-6.8,1.8-10.5c0.4-3.6,0.6-6.8,0.6-9.5v-6.5h-49.1v-10.7H566.4z M518.2,249.8
		h50.6v10.7h-63.2v-30.3h12.6L518.2,249.8L518.2,249.8z"/>
	<path style="fill:#FFFFFF;" d="M614.1,198.3c-0.3,0.9-1.1,1.9-2.4,3.2c-1.2,1.3-2.7,2.6-4.5,4c-2.1,1.7-4.4,3.5-6.7,5.4s-5,3.9-8,6
		l-7.3-9.2c3.1-2.1,5.7-4.1,8-5.9s4.5-3.7,6.8-5.6c2.5-2.2,4.3-4.5,5.4-6.8s1.6-5,1.6-8v-10.7h12.8v10.5c0,1.6,0.1,3,0.3,4.3
		s0.6,2.5,1.1,3.6s1.3,2.2,2.2,3.2s2.1,2.1,3.5,3.2c0.8,0.6,1.8,1.3,2.9,2.1c1.1,0.8,2.3,1.6,3.5,2.5s2.5,1.7,3.8,2.6
		c1.3,0.9,2.6,1.7,3.8,2.5l-7,8.7c-2.1-1.3-4.2-2.8-6.3-4.3s-4.3-3.1-6.4-4.6c-2-1.5-3.6-2.8-4.8-3.9
		C615.2,200.1,614.5,199.1,614.1,198.3L614.1,198.3L614.1,198.3z M662.1,218.9v26.5h-46.2v7h49v10h-61.2v-26.5h46.2v-7h-46.7v-10
		H662.1z M662.1,214.6h-12.6v-46.3h12.6V214.6z"/>
	<path style="fill:#FFFFFF;" d="M698.1,225c-3.1,0-5.9-0.4-8.4-1.2c-2.4-0.8-4.5-1.9-6.2-3.2s-3-2.9-3.9-4.7s-1.4-3.7-1.4-5.7v-3.8
		c0-2,0.5-3.9,1.4-5.7s2.2-3.3,3.9-4.7c1.7-1.3,3.7-2.4,6.2-3.2c2.4-0.8,5.2-1.2,8.4-1.2c3.1,0,5.8,0.4,8.3,1.2s4.5,1.9,6.2,3.2
		s3,2.9,3.9,4.7s1.4,3.7,1.4,5.7v3.8c0,2-0.5,3.9-1.4,5.7s-2.2,3.3-3.9,4.7c-1.7,1.3-3.7,2.4-6.2,3.2
		C703.9,224.6,701.1,225,698.1,225z M691.9,178.5v-10h12.2v10h14.7V189h-43.6v-10.5H691.9z M725.6,264.4c-4.3,0-8.3-0.4-12-1.1
		c-3.6-0.7-6.8-1.8-9.4-3.2c-2.6-1.4-4.7-3.1-6.2-5.2s-2.3-4.4-2.3-7.1v-4c0-2.7,0.8-5,2.3-7.1s3.6-3.8,6.2-5.2
		c2.6-1.4,5.8-2.5,9.4-3.2c3.6-0.7,7.6-1.1,12-1.1c4.3,0,8.2,0.4,11.9,1.1c3.7,0.7,6.8,1.8,9.5,3.2c2.6,1.4,4.7,3.1,6.2,5.2
		c1.5,2.1,2.3,4.4,2.3,7.1v4c0,2.7-0.8,5-2.3,7.1s-3.6,3.8-6.2,5.2c-2.6,1.4-5.8,2.5-9.5,3.2S729.9,264.4,725.6,264.4z M698.1,201.3
		c-2.8,0-4.9,0.6-6.4,1.9s-2.2,2.7-2.2,4.3v1.6c0,1.6,0.7,3,2.2,4.3s3.6,1.9,6.4,1.9s4.9-0.6,6.4-1.9s2.2-2.7,2.2-4.3v-1.6
		c0-1.6-0.7-3-2.2-4.3C703,202,700.9,201.3,698.1,201.3z M725.6,237.4c-2.3,0-4.5,0.2-6.6,0.5s-4,0.8-5.6,1.5
		c-1.6,0.6-2.9,1.4-3.9,2.4c-1,0.9-1.5,2-1.5,3.1v2c0,1.1,0.5,2.2,1.5,3.1c1,0.9,2.3,1.7,3.9,2.4c1.6,0.6,3.5,1.1,5.6,1.5
		c2.1,0.3,4.3,0.5,6.6,0.5s4.5-0.2,6.6-0.5s4-0.8,5.6-1.5c1.6-0.6,2.9-1.4,3.9-2.4c1-0.9,1.5-2,1.5-3.1v-2c0-1.1-0.5-2.2-1.5-3.1
		c-1-0.9-2.3-1.7-3.9-2.4c-1.6-0.6-3.5-1.1-5.6-1.5C730,237.5,727.9,237.4,725.6,237.4z M735.6,191.5h7.5v-23.1h12v58.3h-12v-24.2
		h-7.5v20.3h-11.9v-53.2h11.9V191.5z"/>
</g>
<g>
	<path style="fill:#FFFFFF;" d="M6.3,20.8v108h67.2v5.8H0.1V20.8H6.3L6.3,20.8z"/>
	<path style="fill:#FFFFFF;" d="M83.3,94.2c0-24,16.6-42.4,39.2-42.4c19.2,0,31.6,12.2,34.8,21.4V54h6v80.6h-6v-19.4
		c-3.2,9-15.6,21.4-34.8,21.4C99.7,136.6,83.3,118.2,83.3,94.2z M157.3,94.2c0-20.8-14.2-36.8-34.4-36.8s-33.6,16-33.6,36.8
		s13.4,36.8,33.6,36.8S157.3,115,157.3,94.2z"/>
	<path style="fill:#FFFFFF;" d="M252.1,73h-6c-0.4-8.8-12.6-15.6-28.2-15.6c-15.2,0-26.4,6.8-26.4,15.6c0,9,4.8,15.2,29.6,18.2
		c24.8,2.8,33.2,10.8,33.2,22.2c0,14.6-15.6,23.4-35.2,23.4c-22.2,0-34-10.6-35.2-22.2h6.2c0.8,7.6,9.4,16.8,29.6,16.8
		c16.4,0,28.8-7.2,28.8-17.6c0-9.2-6.6-14.2-30.6-17.2c-24.4-3-32.2-11-32.2-22.8c0-13.2,13.8-21.6,33-21.6
		C237.7,51.8,251.7,61.2,252.1,73z"/>
	<path style="fill:#FFFFFF;" d="M310.1,59.6h-19.6v75h-6v-75h-19.6V54h19.6V29h6v25h19.6V59.6z"/>
	<path style="fill:#FFFFFF;" d="M365.9,20.8h37.6c29.6,0,46.8,14.6,46.8,37.4s-17.2,37.4-46.8,37.4h-31.4v38.8h-6.2V20.8z M402.3,90
		c26,0,41.8-11,41.8-31.6c0-20.8-15.8-31.6-41.8-31.6h-30.2v63.4h30.2V90z"/>
	<path style="fill:#FFFFFF;" d="M474.1,134.6h-6V17.4h6V134.6z"/>
	<path style="fill:#FFFFFF;" d="M494.7,94.2c0-24,16.6-42.4,39.2-42.4c19.2,0,31.6,12.2,34.8,21.4V54h6v80.6h-6v-19.4
		c-3.2,9-15.6,21.4-34.8,21.4C511.3,136.6,494.7,118.2,494.7,94.2z M568.9,94.2c0-20.8-14.2-36.8-34.4-36.8s-33.6,16-33.6,36.8
		s13.4,36.8,33.6,36.8S568.9,115,568.9,94.2z"/>
	<path style="fill:#FFFFFF;" d="M671.7,54l-53.8,115.4h-6.4l16.8-36L591.5,54h6.6l33.6,72.6L665.3,54H671.7z"/>
	<path style="fill:#FFFFFF;" d="M679.3,94.2c0-24,16.6-42.4,39.2-42.4c22.6,0,39.2,18.2,39.2,42.4c0,0.8,0,2-0.2,2.8h-72
		c1.2,19.4,14.2,34,33,34c14.4,0,25.4-7.2,29-16.8h6.6c-4.4,12.8-18,22.4-35.6,22.4C695.9,136.6,679.3,118.2,679.3,94.2z
		 M751.5,91.4c-1.2-19.4-14.2-33.8-33-33.8s-31.8,14.4-33,33.8H751.5z"/>
	<path style="fill:#FFFFFF;" d="M770.1,94.2c0-24,16.6-42.4,39.2-42.4c19.2,0,31.6,12.2,34.8,21.4V17.4h6v117.2h-6v-19.4
		c-3.2,9-15.6,21.4-34.8,21.4C786.7,136.6,770.1,118.2,770.1,94.2z M844.1,94.2c0-20.8-14.2-36.8-34.4-36.8s-33.6,16-33.6,36.8
		s13.4,36.8,33.6,36.8C829.9,131,844.1,115,844.1,94.2z"/>
</g>
</svg>
