<?xml version="1.0" encoding="utf-8"?>
<!-- Generator: Adobe Illustrator 24.0.1, SVG Export Plug-In . SVG Version: 6.00 Build 0)  -->
<svg version="1.1" id="레이어_1" xmlns="http://www.w3.org/2000/svg" xmlns:xlink="http://www.w3.org/1999/xlink" x="0px"
	 y="0px" viewBox="0 0 850 280" style="enable-background:new 0 0 850 280;" xml:space="preserve">
<g>
	<path style="fill:#FFFFFF;" d="M489.3,208.1v9.9H404v-9.9H489.3z M477.4,223.8v24.1h-49.5v5.6h52.2v9.5h-64.4v-24.2h49.5v-5.5h-50
		v-9.5L477.4,223.8L477.4,223.8z M415,171.4h63.3v9.8H453v0.8c0,1.4,0.5,2.7,1.4,3.9s2.6,2.2,4.9,3c3.8,1.3,7.6,2.6,11.5,3.8
		c3.8,1.2,7.6,2.3,11.3,3.4l-3.3,9.5c-3.4-1-7-2.1-10.9-3.3s-7.5-2.4-10.9-3.5c-3-1-5.3-1.9-7-2.6c-1.7-0.7-2.7-1.5-3-2.2h-0.1
		c-0.7,1.3-4.1,2.9-10.2,5c-3.4,1.1-7.1,2.3-11,3.5s-7.6,2.3-11,3.3l-3.4-9.7c3.7-1.1,7.4-2.2,11.3-3.4s7.7-2.4,11.5-3.8
		c2.3-0.8,4-1.8,4.9-3s1.4-2.5,1.4-3.9v-0.8h-25.3L415,171.4z"/>
	<path style="fill:#FFFFFF;" d="M498.3,233c5-3,9.3-5.7,12.8-8s6.5-4.5,8.9-6.5s4.2-3.9,5.6-5.6c1.4-1.7,2.4-3.5,3.1-5.4
		c0.7-1.8,1.1-3.7,1.3-5.7s0.3-4.2,0.3-6.7v-6.7h-30.2v-10.9H543v12.3h18.2v-20.7h12.6v93.1h-12.6v-36.3h-18.8v-10.8h18.8v-14.5
		h-18.3c-0.2,4.1-0.9,7.8-2,11s-3.1,6.3-5.9,9.5c-2.8,3.1-6.6,6.4-11.4,9.9c-4.8,3.4-11,7.5-18.5,12.1L498.3,233z"/>
	<path style="fill:#FFFFFF;" d="M589.4,177.8h18.9v-9.9h12.6v9.9h17.9v10.6h-17.9v2.8c0,1.2,0.1,2.3,0.2,3.3c0.2,1,0.5,1.9,0.9,2.8
		c0.4,0.9,1.1,1.7,1.9,2.6c0.8,0.8,1.9,1.8,3.3,2.8c2,1.5,4.2,3.1,6.7,4.7c2.4,1.6,5,3.2,7.8,4.9l-6.6,9c-2.1-1.3-4.3-2.7-6.5-4.2
		c-2.2-1.4-4.2-2.8-6.2-4.2c-4.4-3.1-6.8-5-7.1-5.9h-0.1c-0.2,0.6-1,1.6-2.5,2.9c-1.5,1.3-3.4,2.8-5.7,4.6c-2.2,1.7-4.4,3.3-6.5,4.8
		s-4.5,3.2-7,4.9l-7.2-9.3c3.2-2.1,6.3-4.3,9.2-6.4c2.9-2.1,5.4-4.1,7.6-5.9c1.7-1.5,3.1-3.1,4-4.8s1.4-3.8,1.4-6.3v-2.8h-18.9
		v-10.9L589.4,177.8L589.4,177.8z M638,236.6c0,2.1,0.6,3.7,1.8,4.8s2.9,2.2,5.2,3.3c3,1.3,6.2,2.7,9.7,4.1s7.1,2.8,10.9,4.2
		l-4.4,10c-3.5-1.3-6.9-2.7-10.4-4.1c-3.5-1.4-6.5-2.7-9.2-4c-3.1-1.5-5.4-2.6-6.8-3.4c-1.4-0.8-2.3-1.6-2.9-2.5
		c-0.5,0.9-1.5,1.7-3.1,2.6c-1.6,0.9-3.9,2-6.9,3.5c-5.4,2.5-12,5.2-19.6,8.1l-4.4-10.3c3.9-1.4,7.7-2.8,11.2-4.2s6.5-2.7,9.1-3.9
		c2.1-1.1,3.9-2.2,5.2-3.4s2-2.8,2.1-4.9h-24v-10.6h60.3v10.6L638,236.6L638,236.6z M660.1,189.6h12.2v11h-12.2v21.1h-12.6V169h12.6
		V189.6z"/>
	<path style="fill:#FFFFFF;" d="M681.5,233.1c5-3,9.3-5.7,12.8-8s6.5-4.5,8.9-6.5s4.2-3.8,5.6-5.6c1.4-1.8,2.4-3.6,3.1-5.4
		c0.7-1.8,1.2-3.7,1.4-5.7s0.3-4.2,0.3-6.7v-6.9h-30.3v-10.9h43.1v18.4c0,3.3-0.2,6.4-0.5,9.1c-0.3,2.7-1,5.3-2,7.7
		s-2.3,4.7-4.1,6.9s-4.1,4.5-6.9,6.9c-2.8,2.4-6.2,4.9-10.3,7.6c-4,2.7-8.8,5.8-14.4,9.2L681.5,233.1z M755.8,262.2h-12.7v-93.1
		h12.7V262.2z"/>
</g>
<g>
	<path style="fill:#FFFFFF;" d="M85,19.1h76.2v5.8h-70v49.3h63.9V80H91.2v53H85V19.1z"/>
	<path style="fill:#FFFFFF;" d="M170.7,92.6c0-23.9,16.6-42.3,39.2-42.3c19.2,0,31.5,12.2,34.7,21.3V52.2h6v80.6h-6v-19.3
		c-3.2,9.1-15.6,21.3-34.7,21.3C187.2,134.9,170.7,116.5,170.7,92.6z M244.7,92.6c0-20.7-14.3-36.7-34.4-36.7s-33.6,16-33.6,36.7
		s13.4,36.7,33.6,36.7S244.7,113.3,244.7,92.6z"/>
	<path style="fill:#FFFFFF;" d="M347.6,52.2l-36.7,80.6h-6.8l-36.7-80.6h6.6l33.6,74.3l33.6-74.3C341.2,52.2,347.6,52.2,347.6,52.2z
		"/>
	<path style="fill:#FFFFFF;" d="M434,92.6c0,24.1-17,42.3-40,42.3s-40-18.3-40-42.3s17-42.3,40-42.3S434,68.5,434,92.6z M360,92.6
		c0,20.9,13.8,36.7,34,36.7s34-15.8,34-36.7s-13.8-36.7-34-36.7C373.8,55.8,360,71.7,360,92.6z"/>
	<path style="fill:#FFFFFF;" d="M454.8,52.2h6v20c2.4-7.8,14.3-22,34.6-22c5.3,0,8.6,0.6,11.1,1.4v5.9c-2.7-1.2-6.5-1.7-11.4-1.7
		c-19.6,0-34.3,18.1-34.3,35v42.1h-6L454.8,52.2L454.8,52.2z"/>
	<path style="fill:#FFFFFF;" d="M529.6,21.4c0,2.9-2.2,5-5,5s-5-2.2-5-5s2.2-5,5-5S529.6,18.5,529.6,21.4z M527.6,132.9h-6V52.2h6
		V132.9z"/>
	<path style="fill:#FFFFFF;" d="M589.1,57.9h-19.6v75h-6v-75h-19.6v-5.6h19.6V27.2h6v25.1h19.6V57.9z"/>
	<path style="fill:#FFFFFF;" d="M596.9,92.6c0-24.1,16.6-42.3,39.2-42.3c22.6,0,39.2,18.3,39.2,42.3c0,0.9,0,2-0.1,2.7h-72
		c1.2,19.4,14.3,34,33,34c14.4,0,25.3-7.2,28.9-16.7h6.6c-4.5,12.8-18,22.3-35.6,22.3C613.4,134.9,596.9,116.6,596.9,92.6z
		 M669,89.7c-1.2-19.4-14.3-33.8-33-33.8s-31.8,14.4-33,33.8H669z"/>
	<path style="fill:#FFFFFF;" d="M759.5,71.2h-6c-0.4-8.8-12.5-15.6-28.2-15.6c-15.3,0-26.5,6.8-26.5,15.6c0,8.9,4.9,15.3,29.7,18.1
		c24.8,2.9,33.3,10.8,33.3,22.2c0,14.7-15.6,23.3-35.3,23.3c-22.2,0-34-10.5-35.3-22.2h6.2c0.9,7.6,9.4,16.7,29.5,16.7
		c16.4,0,28.8-7.2,28.8-17.6c0-9.2-6.6-14.3-30.7-17.3c-24.3-3-32.3-10.9-32.3-22.8c0-13.1,13.8-21.6,33-21.6
		C745.1,50.2,759,59.6,759.5,71.2z"/>
</g>
</svg>
