<?xml version="1.0" encoding="utf-8"?>
<!-- Generator: Adobe Illustrator 24.0.1, SVG Export Plug-In . SVG Version: 6.00 Build 0)  -->
<svg version="1.1" id="레이어_1" xmlns="http://www.w3.org/2000/svg" xmlns:xlink="http://www.w3.org/1999/xlink" x="0px"
	 y="0px" viewBox="0 0 850 280" style="enable-background:new 0 0 850 280;" xml:space="preserve">
<g>
	<path style="fill:#FFFFFF;" d="M408.8,175.7h48.1v10.8h-17.4v7.8c0,1.2,0.1,2.3,0.2,3.4c0.2,1,0.5,2,1,2.9s1.2,1.8,2,2.8
		c0.8,0.9,1.9,1.9,3.3,2.9c2.1,1.6,4.4,3.2,6.8,4.9s4.9,3.3,7.4,4.9l-6.8,9c-2.1-1.4-4.3-2.8-6.4-4.3s-4.1-2.9-6-4.2
		c-2.1-1.5-3.8-2.9-5.1-4c-1.2-1.1-2-1.9-2.2-2.5h-0.1c-0.2,0.6-1,1.6-2.3,2.9c-1.3,1.3-3.2,2.9-5.5,4.7c-2.1,1.7-4.3,3.5-6.6,5.2
		c-2.2,1.7-4.6,3.4-7.2,5.2l-7.4-9.3c3.2-2.1,6.2-4.3,9.1-6.5c2.8-2.2,5.3-4.2,7.5-6.1c1.7-1.5,3.1-3.3,4.1-5.2s1.5-4.1,1.5-6.6
		v-7.8h-18V175.7z M435.1,251.2h48.1V262h-60.8v-31.2h12.7L435.1,251.2L435.1,251.2z M469.1,204.4h-15v-10.8H469V170h12.6v66.3H469
		L469.1,204.4z"/>
	<path style="fill:#FFFFFF;" d="M496.9,183.5h15.7V172h12.3v11.5h14.8v10.7h-14.8v8.1c0,1.7,0.1,3.3,0.3,4.6s0.5,2.6,1,3.8
		s1.1,2.3,1.8,3.5c0.7,1.1,1.6,2.3,2.6,3.6c1.9,2.3,4,4.8,6.4,7.3s4.6,4.9,6.8,7l-8.3,7.8c-1.9-2-3.9-4-5.8-6.1s-3.6-4-5.2-5.8
		c-1.2-1.4-2.3-2.7-3.3-3.9s-1.6-2.2-2-3h-0.1c-0.3,0.8-1,1.8-2,3.1s-2.1,2.7-3.4,4.2c-1.7,2-3.6,4.2-5.7,6.6
		c-2.1,2.4-4.2,4.6-6.3,6.7l-8.3-8.3c2.1-2,4.3-4.3,6.7-6.9c2.4-2.6,4.5-5.1,6.5-7.5c1.1-1.3,2-2.6,2.8-3.8s1.4-2.4,1.9-3.7
		c0.5-1.2,0.8-2.6,1-4c0.2-1.4,0.3-3.1,0.3-5v-8.2h-15.7L496.9,183.5L496.9,183.5z M546.1,213.8h-11.3v-11h11.3v-30.9h12v86.7h-12
		V213.8z M576.7,263h-12v-93.1h12V263z"/>
	<path style="fill:#FFFFFF;" d="M625,200.4c0,0.5,0,0.9,0,1.4c0,0.4,0,0.9-0.1,1.3h11.2v-31.2h12.1v86.7h-12.1V214h-12.8
		c-0.7,2.3-1.8,4.6-3.3,6.8c-1.4,2.2-3.3,4.4-5.7,6.7c-2.3,2.3-5.2,4.8-8.6,7.4c-3.4,2.6-7.4,5.6-12.1,8.8l-7.2-9.6
		c5.8-3.9,10.4-7.2,13.9-10s6.1-5.4,7.9-8c1.8-2.5,3-5.2,3.6-7.9s0.9-6,0.9-9.7v-8.6h-23.8V179H625V200.4z M667.6,263h-12.1v-93.1
		h12.1V263z"/>
	<path style="fill:#FFFFFF;" d="M704.6,218.3c-3.7,0-7.1-0.6-10-1.8s-5.4-2.7-7.5-4.6c-2.1-1.9-3.6-4.1-4.7-6.6
		c-1.1-2.5-1.6-5.1-1.6-7.9v-3.6c0-2.7,0.5-5.3,1.6-7.8s2.6-4.8,4.7-6.7c2.1-1.9,4.6-3.4,7.5-4.6c2.9-1.2,6.3-1.8,10-1.8
		s7.1,0.6,10,1.8s5.4,2.7,7.5,4.6c2.1,1.9,3.6,4.1,4.7,6.7c1.1,2.5,1.6,5.1,1.6,7.8v3.6c0,2.7-0.5,5.4-1.6,7.9s-2.6,4.7-4.7,6.6
		c-2.1,1.9-4.6,3.4-7.5,4.6C711.7,217.7,708.3,218.3,704.6,218.3z M696,226.2h59.2v36.9H696V226.2z M704.6,183.7
		c-1.9,0-3.5,0.3-5,0.9c-1.5,0.6-2.7,1.4-3.7,2.4s-1.8,2.1-2.3,3.4c-0.5,1.2-0.8,2.5-0.8,3.8v3c0,1.3,0.3,2.5,0.8,3.8
		c0.5,1.2,1.3,2.4,2.3,3.4s2.2,1.8,3.7,2.4c1.5,0.6,3.1,0.9,5,0.9s3.5-0.3,5-0.9c1.5-0.6,2.7-1.4,3.7-2.4s1.8-2.1,2.3-3.4
		c0.5-1.2,0.8-2.5,0.8-3.8v-3c0-1.3-0.3-2.5-0.8-3.8c-0.5-1.2-1.3-2.4-2.3-3.4s-2.2-1.8-3.7-2.4S706.5,183.7,704.6,183.7z
		 M708.5,252.5h34.1v-15.8h-34.1V252.5z M755.2,222h-12.6v-52.1h12.6V222z"/>
</g>
<g>
	<path style="fill:#FFFFFF;" d="M130.1,101.1H66.7l-14.2,33.2h-6.6L94.7,20.5h7.4l48.8,113.8h-6.6L130.1,101.1z M127.5,95.3
		l-29-68.2l-29,68.2H127.5z"/>
	<path style="fill:#FFFFFF;" d="M173.1,134.3h-6V17.1h6V134.3z"/>
	<path style="fill:#FFFFFF;" d="M204.1,134.3h-6V17.1h6V134.3z"/>
	<path style="fill:#FFFFFF;" d="M378.3,57.1h-6.2c-4.8-19.4-25.2-33.6-49.4-33.6c-31,0-52.6,22.6-52.6,53.8
		c0,31.4,21.4,53.8,53,53.8c28,0,49.6-19,50.6-47.6h-54.2v-5.4h60.6v3.8c0,32.6-25.2,54.8-57.4,54.8c-34.4,0-58.6-25-58.6-59.4
		c0-34.2,24.2-59.4,58.6-59.4C351.1,17.9,373.1,34.9,378.3,57.1z"/>
	<path style="fill:#FFFFFF;" d="M396.9,93.9c0-24,16.6-42.4,39.2-42.4c19.2,0,31.6,12.2,34.8,21.4V53.7h6v80.6h-6v-19.2
		c-3.2,9-15.6,21.4-34.8,21.4C413.3,136.3,396.9,117.7,396.9,93.9z M470.9,93.9c0-20.8-14.2-36.8-34.4-36.8s-33.6,16-33.6,36.8
		s13.4,36.8,33.6,36.8S470.9,114.7,470.9,93.9z"/>
	<path style="fill:#FFFFFF;" d="M501.7,53.5h6v17.8c2.6-7,11.2-19.8,29-19.8c13.6,0,23,9,26,22.8c4.4-13.6,15.8-22.8,30.8-22.8
		c15.4,0,27.4,12.8,27.4,31.6v51.2h-6V84.1c0-16.6-9-27-22.6-27c-15.6,0-28,16.4-28,34v43h-6V84.9c0-17.6-9.2-28-22.6-28
		c-15.6,0-28,16.6-28,33.6v43.4h-6L501.7,53.5L501.7,53.5z"/>
	<path style="fill:#FFFFFF;" d="M639.5,93.9c0-24,16.6-42.4,39.2-42.4c22.6,0,39.2,18.2,39.2,42.4c0,0.8,0,2-0.2,2.8h-72
		c1.2,19.4,14.2,34,33,34c14.4,0,25.4-7.2,29-16.8h6.6c-4.4,12.8-18,22.4-35.6,22.4C656.1,136.3,639.5,117.9,639.5,93.9z
		 M711.7,91.1c-1.2-19.4-14.2-33.8-33-33.8s-31.8,14.4-33,33.8H711.7z"/>
	<path style="fill:#FFFFFF;" d="M802.1,72.5h-6c-0.4-8.8-12.6-15.6-28.2-15.6c-15.2,0-26.4,6.8-26.4,15.6c0,9,4.8,15.2,29.6,18.2
		c24.8,2.8,33.2,10.8,33.2,22.2c0,14.6-15.6,23.4-35.2,23.4c-22.2,0-34-10.6-35.2-22.2h6.2c0.8,7.6,9.4,16.8,29.6,16.8
		c16.4,0,28.8-7.2,28.8-17.6c0-9.2-6.6-14.2-30.6-17.2c-24.4-3-32.2-11-32.2-22.8c0-13.2,13.8-21.6,33-21.6
		C787.7,51.5,801.5,60.9,802.1,72.5z"/>
</g>
</svg>
