<?xml version="1.0" encoding="utf-8"?>
<!-- Generator: Adobe Illustrator 24.0.1, SVG Export Plug-In . SVG Version: 6.00 Build 0)  -->
<svg version="1.1" id="레이어_1" xmlns="http://www.w3.org/2000/svg" xmlns:xlink="http://www.w3.org/1999/xlink" x="0px"
	 y="0px" viewBox="0 0 850 250" style="enable-background:new 0 0 850 250;" xml:space="preserve">
<g>
	<path style="fill:#FFFFFF;" d="M450.5,196.3c4.3-1.3,8-2.4,11.3-3.5c3.2-1.1,6-2,8.3-2.9c2.3-0.9,4.2-1.7,5.7-2.5s2.7-1.6,3.7-2.4
		l-28.3,1l-0.3-10.3l31.6-0.6v-6.2h-28.9v-10.4h41.2v16.4h18V155h12.6v47.1h-12.6v-16.7h-20c-0.9,2.2-2.3,4.2-4.2,5.9
		c-1.8,1.7-4.3,3.4-7.4,5c-3.1,1.6-6.8,3.2-11.2,4.8c-4.4,1.6-9.7,3.3-15.8,5.2L450.5,196.3z M525.4,206.3v26h-46.2v6.7h49v10H467
		v-26.2h46.2v-6.6h-46.7v-9.9C466.5,206.3,525.4,206.3,525.4,206.3z"/>
	<path style="fill:#FFFFFF;" d="M564.4,178.9v-8.8h-22.9V160h34.8v28.7h-23v8.8c5,0,10-0.1,15.1-0.3c5-0.2,9.7-0.6,14-1.1l1.2,9.9
		c-4.3,0.6-9.9,1-16.6,1.3c-6.7,0.2-15.2,0.4-25.4,0.4V179L564.4,178.9L564.4,178.9z M555.9,215.4h62.6v33.9h-12.6V226h-50V215.4z
		 M588.9,187.6h-8.3v-10.8h8.3v-20.6h11.9V211h-11.9V187.6z M618.5,211.2h-12V155h12V211.2z"/>
	<path style="fill:#FFFFFF;" d="M658.5,193.9c-0.2,0.9-0.9,1.9-2.1,3.2c-1.2,1.2-2.5,2.6-4.1,4c-2.3,2.1-4.5,4.2-6.8,6.1
		c-2.3,1.9-5,4.2-8.1,6.7l-7.8-9.2c2.6-2,5.2-4.2,7.9-6.5c2.6-2.3,5.1-4.6,7.5-6.8c2.4-2.3,4.1-4.7,5.2-7c1-2.3,1.6-5.2,1.6-8.6
		v-16.7h12.8v16.2c0,1.8,0.1,3.4,0.3,4.8c0.2,1.4,0.5,2.7,1,3.8s1.1,2.2,2,3.3c0.8,1,1.9,2.1,3.3,3.3c2.4,2.1,4.8,4,7.3,5.9
		c2.5,1.9,4.9,3.7,7.3,5.4l-7.2,8.7c-1.9-1.4-4-2.9-6.2-4.6s-4.5-3.5-6.8-5.4c-1.7-1.4-3.2-2.6-4.5-3.7
		C659.7,195.7,658.9,194.7,658.5,193.9L658.5,193.9z M661.1,236.3h48.1v10.8h-60.8V216h12.7V236.3z M695.1,194.4h-15.9v-10.6h15.9
		v-6.3h-15.9v-10.6h15.9v-11.8h12.5v66.2h-12.5V194.4z"/>
</g>
<g>
	<path style="fill:#FFFFFF;" d="M17.2,62c0-34.2,24.6-59.4,58.4-59.4c28,0,47.6,15.6,54.8,39.2H124c-6.6-20.4-23.6-33.4-48.2-33.4
		C45.4,8.4,23.6,30.8,23.6,62s22.2,53.6,52.4,53.6c25.4,0,43.4-14,49.2-35h6.4c-6.2,24.4-27,40.8-55.8,40.8
		C42,121.4,17.2,96.2,17.2,62z"/>
	<path style="fill:#FFFFFF;" d="M227.8,78.6c0,24-17,42.4-40,42.4s-40-18.2-40-42.4s17-42.4,40-42.4S227.8,54.6,227.8,78.6z
		 M153.8,78.6c0,20.8,13.8,36.8,34,36.8s34-15.8,34-36.8c0-20.8-13.8-36.8-34-36.8C167.6,41.8,153.8,57.8,153.8,78.6z"/>
	<path style="fill:#FFFFFF;" d="M254.6,119h-6V1.8h6V119z"/>
	<path style="fill:#FFFFFF;" d="M285.8,119h-6V1.8h6V119z"/>
	<path style="fill:#FFFFFF;" d="M306.4,78.6c0-24,16.6-42.4,39.2-42.4s39.2,18.2,39.2,42.4c0,0.8,0,2-0.2,2.8h-72
		c1.2,19.4,14.2,34,33,34c14.4,0,25.4-7.2,29-16.8h6.6c-4.4,12.8-18,22.4-35.6,22.4C323,121,306.4,102.6,306.4,78.6z M378.6,75.8
		c-1.2-19.4-14.2-33.8-33-33.8s-31.8,14.4-33,33.8H378.6z"/>
	<path style="fill:#FFFFFF;" d="M441,121c-23.2,0-40.4-18.2-40.4-42.4s17-42.4,39.8-42.4c17.4,0,31.6,11.2,36.2,27.6h-6.2
		c-4.4-13.2-15.6-22-30-22c-20,0-33.8,15.8-33.8,36.8c0,20.8,13.8,36.8,33.8,36.8c14.6,0,26.2-9.2,30.2-22.4h6.2
		C472.6,109.6,458.6,121,441,121z"/>
	<path style="fill:#FFFFFF;" d="M529.6,43.8H510v75h-6v-75h-19.6v-5.6H504v-25h6v25h19.6V43.8z"/>
	<path style="fill:#FFFFFF;" d="M554,7.4c0,2.8-2.2,5-5,5s-5-2.2-5-5s2.2-5,5-5S554,4.6,554,7.4z M552,119h-6V38.4h6V119z"/>
	<path style="fill:#FFFFFF;" d="M652.8,78.6c0,24-17,42.4-40,42.4s-40-18.2-40-42.4s17-42.4,40-42.4S652.8,54.6,652.8,78.6z
		 M578.8,78.6c0,20.8,13.8,36.8,34,36.8s34-15.8,34-36.8c0-20.8-13.8-36.8-34-36.8S578.8,57.8,578.8,78.6z"/>
	<path style="fill:#FFFFFF;" d="M673.4,38.2h6v20c2.4-7.6,13.6-22,33.2-22c18.2,0,31.6,13.8,31.6,35v47.6h-6V72.2
		c0-19.8-10.4-30.4-26.8-30.4c-17.8,0-31.8,18.2-31.8,35v42h-6V38.2H673.4z"/>
	<path style="fill:#FFFFFF;" d="M830.8,57.2h-6c-0.4-8.8-12.6-15.6-28.2-15.6c-15.2,0-26.4,6.8-26.4,15.6c0,9,4.8,15.2,29.6,18.2
		c24.8,2.8,33.2,10.8,33.2,22.2c0,14.6-15.6,23.4-35.2,23.4c-22.2,0-34-10.6-35.2-22.2h6.2c0.8,7.6,9.4,16.8,29.6,16.8
		c16.4,0,28.8-7.2,28.8-17.6c0-9.2-6.6-14.2-30.6-17.2c-24.4-3-32.2-11-32.2-22.8c0-13.2,13.8-21.6,33-21.6
		C816.4,36.2,830.4,45.6,830.8,57.2z"/>
</g>
</svg>
